<svg id="Layer_1" data-name="Layer 1" xmlns="http://www.w3.org/2000/svg" viewBox="0 0 348.41 97.14"><defs><style>.cls-1{fill:none;stroke:#0f2547;stroke-miterlimit:10;stroke-width:2px;}.cls-2{fill:#0f2547;}</style></defs><title>beachhacks header image</title><path class="cls-1" d="M36.83,20.75c2.1,0,6.17,0,9.22,2.38a9.78,9.78,0,0,1,3.51,7.8,8,8,0,0,1-4.24,7.41,8.85,8.85,0,0,1,4.92,2.38A9.63,9.63,0,0,1,53,47.79a10.08,10.08,0,0,1-3.22,7.63c-2.83,2.49-6.28,3.06-9.56,3.06H27.5V20.75Zm-2,15.67H37c1.13,0,5.71-.11,5.71-4.92,0-3.45-2.66-4.75-5.66-4.75H34.85Zm0,16.06H38a10,10,0,0,0,5-1,4.84,4.84,0,0,0,2.31-4.35,4.5,4.5,0,0,0-2.77-4.3,11.9,11.9,0,0,0-5-.74H34.85Z" transform="translate(-24.44 -18.9)"/><path class="cls-1" d="M80.67,27.09H67.09v8.42h13v6.34h-13V52.14H80.67v6.34H59.74V20.75H80.67Z" transform="translate(-24.44 -18.9)"/><path class="cls-1" d="M110.14,50.56,102.61,31l-11,27.49h-8L99.84,20.75h5.77l15.78,37.73h-7.92ZM102.61,31" transform="translate(-24.44 -18.9)"/><path class="cls-1" d="M152,57.12a19.49,19.49,0,0,1-9.33,2.21c-6.62,0-10.63-2.27-13.8-5.26a18.83,18.83,0,0,1-6.05-14.43,19.74,19.74,0,0,1,6.05-14.76c3.79-3.56,8.49-5,13.86-5A19,19,0,0,1,152,22.22v8.6a12.11,12.11,0,0,0-9.1-4.24c-7.58,0-12.5,6.22-12.5,13.18a12.49,12.49,0,0,0,12.78,12.89A11.41,11.41,0,0,0,152,48.52Z" transform="translate(-24.44 -18.9)"/><path class="cls-1" d="M166.13,35.34h16V20.75h7.36V58.48h-7.36V41.68h-16v16.8h-7.35V20.75h7.35Z" transform="translate(-24.44 -18.9)"/><path class="cls-1" d="M211,35.34h16V20.75h7.36V58.48H227V41.68H211v16.8h-7.35V20.75H211Z" transform="translate(-24.44 -18.9)"/><path class="cls-1" d="M265.29,50.56,257.76,31l-11,27.49h-8L255,20.75h5.77l15.78,37.73h-7.92ZM257.76,31" transform="translate(-24.44 -18.9)"/><path class="cls-1" d="M307.14,57.12a19.49,19.49,0,0,1-9.33,2.21c-6.62,0-10.63-2.27-13.8-5.26A18.79,18.79,0,0,1,278,39.64,19.74,19.74,0,0,1,284,24.88c3.79-3.56,8.48-5,13.86-5a19,19,0,0,1,9.27,2.32v8.6a12.12,12.12,0,0,0-9.1-4.24c-7.58,0-12.5,6.22-12.5,13.18a12.49,12.49,0,0,0,12.78,12.89,11.41,11.41,0,0,0,8.82-4.13Z" transform="translate(-24.44 -18.9)"/><path class="cls-1" d="M321.28,36.7l13.86-16h9.28L328.47,38.17l16.8,20.31h-9.73L322.13,41.57l-.85.84V58.48h-7.35V20.75h7.35Z" transform="translate(-24.44 -18.9)"/><path class="cls-1" d="M366.65,29.35a7.39,7.39,0,0,0-6.17-3.23c-4,0-5.2,2.49-5.2,4.42a3.16,3.16,0,0,0,1.19,2.54c.9.85,2.15,1.3,4.52,2.15,2.94,1,5.71,2,7.64,3.79a10.29,10.29,0,0,1,3.22,7.92c0,7.35-5.32,12.39-13.12,12.39a15.54,15.54,0,0,1-13-7.13l4.81-4.58a8.85,8.85,0,0,0,7.92,5c3.33,0,5.82-2,5.82-5.2a4.4,4.4,0,0,0-1.47-3.4c-1.41-1.3-3.67-2-5.82-2.77A18.1,18.1,0,0,1,350.7,38a8.76,8.76,0,0,1-3-7c0-5.54,3.73-11.09,12.1-11.09a14.53,14.53,0,0,1,10.69,4.41Z" transform="translate(-24.44 -18.9)"/><path class="cls-2" d="M35.27,84a7.23,7.23,0,0,1-3.46.81,6.85,6.85,0,0,1-5.12-2,7,7,0,0,1-2.25-5.35A7.31,7.31,0,0,1,26.69,72a7.17,7.17,0,0,1,5.14-1.85,7,7,0,0,1,3.44.86v3.19a4.48,4.48,0,0,0-3.38-1.57A4.84,4.84,0,0,0,32,82.32a4.21,4.21,0,0,0,3.27-1.54Z" transform="translate(-24.44 -18.9)"/><path class="cls-2" d="M44.39,75.39H47v9.09H44.39V83.3a3.24,3.24,0,0,1-2.79,1.47A4.61,4.61,0,0,1,37,79.92a4.55,4.55,0,0,1,4.51-4.83,3.31,3.31,0,0,1,2.92,1.47ZM39.6,79.92a2.52,2.52,0,1,0,2.52-2.56A2.5,2.5,0,0,0,39.6,79.92Z" transform="translate(-24.44 -18.9)"/><path class="cls-2" d="M52,69.17V84.48H49.39V69.17Z" transform="translate(-24.44 -18.9)"/><path class="cls-2" d="M55.67,70a1.54,1.54,0,1,1-1.54,1.54A1.55,1.55,0,0,1,55.67,70ZM57,75.39v9.09H54.39V75.39Z" transform="translate(-24.44 -18.9)"/><path class="cls-2" d="M62,77.57v6.91H59.43V77.57h-1V75.39h1v-2.5a4,4,0,0,1,1.19-3.21,3.42,3.42,0,0,1,2.25-.76,3.28,3.28,0,0,1,1.47.32v2.33a1.74,1.74,0,0,0-1.16-.38,1,1,0,0,0-.92.46A3,3,0,0,0,62,73.23v2.16h2.35v2.18Z" transform="translate(-24.44 -18.9)"/><path class="cls-2" d="M73.94,76.38a4.9,4.9,0,0,1,0,7.11,5.92,5.92,0,0,1-7.35,0,4.87,4.87,0,0,1,0-7.11,5.88,5.88,0,0,1,7.35,0Zm-1.12,3.56a2.56,2.56,0,1,0-2.56,2.57A2.54,2.54,0,0,0,72.82,79.94Z" transform="translate(-24.44 -18.9)"/><path class="cls-2" d="M77.44,75.39H80v1.36a3.09,3.09,0,0,1,1.13-1.26,2.8,2.8,0,0,1,1.51-.4,3.24,3.24,0,0,1,1.09.21l-.33,2.4a2,2,0,0,0-1.2-.34,2.1,2.1,0,0,0-1.7.74,3.12,3.12,0,0,0-.5,2v4.37H77.44Z" transform="translate(-24.44 -18.9)"/><path class="cls-2" d="M85,75.39h2.56v1.17a3.37,3.37,0,0,1,2.82-1.47,3.5,3.5,0,0,1,2.69,1.12,3.81,3.81,0,0,1,.71,2.56v5.71H91.22v-5a2.6,2.6,0,0,0-.48-1.78,1.65,1.65,0,0,0-1.2-.46,1.75,1.75,0,0,0-1.58.8,3.16,3.16,0,0,0-.4,1.76v4.64H85Z" transform="translate(-24.44 -18.9)"/><path class="cls-2" d="M97.5,70A1.54,1.54,0,1,1,96,71.55,1.55,1.55,0,0,1,97.5,70Zm1.28,5.38v9.09H96.22V75.39Z" transform="translate(-24.44 -18.9)"/><path class="cls-2" d="M108.19,75.39h2.56v9.09h-2.56V83.3a3.26,3.26,0,0,1-2.8,1.47,4.61,4.61,0,0,1-4.64-4.85,4.55,4.55,0,0,1,4.52-4.83,3.31,3.31,0,0,1,2.92,1.47Zm-4.79,4.53a2.52,2.52,0,1,0,2.52-2.56A2.5,2.5,0,0,0,103.4,79.92Z" transform="translate(-24.44 -18.9)"/><path class="cls-2" d="M125.34,73.67a2.74,2.74,0,0,0-2.29-1.2c-1.47,0-1.93.92-1.93,1.64a1.19,1.19,0,0,0,.44.94,4.65,4.65,0,0,0,1.68.8,8.3,8.3,0,0,1,2.84,1.41,3.79,3.79,0,0,1,1.19,2.94c0,2.73-2,4.59-4.87,4.59a5.78,5.78,0,0,1-4.83-2.64l1.79-1.7a3.29,3.29,0,0,0,2.94,1.87,2,2,0,0,0,2.16-1.93,1.61,1.61,0,0,0-.55-1.26,6,6,0,0,0-2.16-1,6.81,6.81,0,0,1-2.33-1.22,3.27,3.27,0,0,1-1.11-2.6c0-2.06,1.38-4.12,4.49-4.12a5.4,5.4,0,0,1,4,1.64Z" transform="translate(-24.44 -18.9)"/><path class="cls-2" d="M131.85,77.57v6.91h-2.56V77.57h-1V75.39h1V72.28h2.56v3.11h1.77v2.18Z" transform="translate(-24.44 -18.9)"/><path class="cls-2" d="M141.93,75.39h2.56v9.09h-2.56V83.3a3.24,3.24,0,0,1-2.79,1.47,4.61,4.61,0,0,1-4.64-4.85A4.55,4.55,0,0,1,139,75.09a3.3,3.3,0,0,1,2.92,1.47Zm-4.78,4.53a2.52,2.52,0,1,0,2.51-2.56A2.49,2.49,0,0,0,137.15,79.92Z" transform="translate(-24.44 -18.9)"/><path class="cls-2" d="M149.49,77.57v6.91h-2.56V77.57h-1V75.39h1V72.28h2.56v3.11h1.77v2.18Z" transform="translate(-24.44 -18.9)"/><path class="cls-2" d="M161.52,81.94a4.49,4.49,0,0,1-4.47,2.83,4.74,4.74,0,0,1-3.48-1.28,4.57,4.57,0,0,1-1.43-3.55,4.83,4.83,0,0,1,1.38-3.56A4.7,4.7,0,0,1,157,75.09a4.35,4.35,0,0,1,3.55,1.5,5.45,5.45,0,0,1,1.09,3.56v.21h-6.81a2.66,2.66,0,0,0,.45,1.54,2.15,2.15,0,0,0,1.82.86,2.33,2.33,0,0,0,2.12-1.2Zm-2.35-3.21a2.18,2.18,0,0,0-4.3,0Z" transform="translate(-24.44 -18.9)"/><path class="cls-2" d="M171.56,70.48v8.79a3.08,3.08,0,0,0,.67,2.08,3,3,0,0,0,4.46,0,3.08,3.08,0,0,0,.67-2.08V70.48h2.73V79A5.9,5.9,0,0,1,179,82.78a6.22,6.22,0,0,1-9.16,0,5.9,5.9,0,0,1-1-3.74V70.48Z" transform="translate(-24.44 -18.9)"/><path class="cls-2" d="M182.9,75.39h2.56v1.17a3.37,3.37,0,0,1,2.82-1.47A3.5,3.5,0,0,1,191,76.21a3.81,3.81,0,0,1,.71,2.56v5.71h-2.56v-5a2.6,2.6,0,0,0-.48-1.78,1.65,1.65,0,0,0-1.2-.46,1.75,1.75,0,0,0-1.58.8,3.16,3.16,0,0,0-.4,1.76v4.64H182.9Z" transform="translate(-24.44 -18.9)"/><path class="cls-2" d="M195.4,70a1.54,1.54,0,1,1-1.53,1.54A1.55,1.55,0,0,1,195.4,70Zm1.28,5.38v9.09h-2.56V75.39Z" transform="translate(-24.44 -18.9)"/><path class="cls-2" d="M200.79,75.39l2.4,5.12,2.39-5.12h2.86l-4.58,9.09h-1.34l-4.58-9.09Z" transform="translate(-24.44 -18.9)"/><path class="cls-2" d="M218.62,81.94a4.49,4.49,0,0,1-4.47,2.83,4.74,4.74,0,0,1-3.48-1.28,4.57,4.57,0,0,1-1.43-3.55,4.83,4.83,0,0,1,1.38-3.56A4.66,4.66,0,0,1,214,75.09a4.34,4.34,0,0,1,3.55,1.5,5.4,5.4,0,0,1,1.1,3.56v.21h-6.81a2.73,2.73,0,0,0,.44,1.54,2.17,2.17,0,0,0,1.83.86,2.33,2.33,0,0,0,2.12-1.2Zm-2.35-3.21a2.18,2.18,0,0,0-4.3,0Z" transform="translate(-24.44 -18.9)"/><path class="cls-2" d="M220.66,75.39h2.56v1.36a3.16,3.16,0,0,1,1.14-1.26,2.8,2.8,0,0,1,1.51-.4,3.24,3.24,0,0,1,1.09.21l-.34,2.4a1.91,1.91,0,0,0-1.19-.34,2.09,2.09,0,0,0-1.7.74,3.07,3.07,0,0,0-.51,2v4.37h-2.56Z" transform="translate(-24.44 -18.9)"/><path class="cls-2" d="M233.18,77.55a2.12,2.12,0,0,0-1.49-.61c-.61,0-1,.3-1,.74,0,.23.1.59.82.82l.61.19a4.64,4.64,0,0,1,2.31,1.3,2.63,2.63,0,0,1,.46,1.51,3,3,0,0,1-1,2.31,3.84,3.84,0,0,1-2.73,1,4.6,4.6,0,0,1-3.53-1.51L229,81.71a2.8,2.8,0,0,0,2,1.05c.72,0,1.26-.36,1.26-1a1,1,0,0,0-.8-.92l-.58-.21a5,5,0,0,1-2-1.09,2.46,2.46,0,0,1-.69-1.75,2.67,2.67,0,0,1,.95-2,3.72,3.72,0,0,1,2.37-.66,4.57,4.57,0,0,1,2.9,1Z" transform="translate(-24.44 -18.9)"/><path class="cls-2" d="M238,70a1.54,1.54,0,1,1,0,3.07A1.54,1.54,0,0,1,238,70Zm1.29,5.38v9.09H236.7V75.39Z" transform="translate(-24.44 -18.9)"/><path class="cls-2" d="M244.26,77.57v6.91H241.7V77.57h-1V75.39h1V72.28h2.56v3.11H246v2.18Z" transform="translate(-24.44 -18.9)"/><path class="cls-2" d="M250.52,83.12l-4.32-7.73h3L252,80.55l2.52-5.16h2.9l-7.33,13.9h-2.9Z" transform="translate(-24.44 -18.9)"/><path class="cls-2" d="M259.36,81.58l2.35.28-3,5.56-1.61-.19Z" transform="translate(-24.44 -18.9)"/><path class="cls-2" d="M272.09,70.48V82.13h4.32v2.35h-7.05v-14Z" transform="translate(-24.44 -18.9)"/><path class="cls-2" d="M286.35,76.38a4.9,4.9,0,0,1,0,7.11,5.92,5.92,0,0,1-7.35,0,4.87,4.87,0,0,1,0-7.11,5.88,5.88,0,0,1,7.35,0Zm-1.12,3.56a2.56,2.56,0,1,0-2.56,2.57A2.54,2.54,0,0,0,285.23,79.94Z" transform="translate(-24.44 -18.9)"/><path class="cls-2" d="M289.85,75.39h2.57v1.17a3.33,3.33,0,0,1,2.81-1.47,3.5,3.5,0,0,1,2.69,1.12,3.81,3.81,0,0,1,.71,2.56v5.71h-2.56v-5a2.6,2.6,0,0,0-.48-1.78,1.65,1.65,0,0,0-1.2-.46,1.75,1.75,0,0,0-1.58.8,3.15,3.15,0,0,0-.39,1.76v4.64h-2.57Z" transform="translate(-24.44 -18.9)"/><path class="cls-2" d="M308,75.39h2.56v8.67a5.23,5.23,0,0,1-1.26,4,4.83,4.83,0,0,1-3.59,1.28,4.4,4.4,0,0,1-4.87-3.76h2.77a2.16,2.16,0,0,0,.63,1.09,2.28,2.28,0,0,0,1.55.49,2.2,2.2,0,0,0,1.56-.57,2.6,2.6,0,0,0,.65-2V83.26a3.17,3.17,0,0,1-2.79,1.51,4.33,4.33,0,0,1-3.16-1.23,5.31,5.31,0,0,1,0-7.23,4.48,4.48,0,0,1,3.13-1.22A3.23,3.23,0,0,1,308,76.56ZM304.07,78a2.5,2.5,0,0,0-.82,1.93,2.57,2.57,0,0,0,.67,1.79,2.49,2.49,0,0,0,1.85.8,2.57,2.57,0,0,0,1.7-.63,2.68,2.68,0,0,0,.82-2,2.61,2.61,0,0,0-.73-1.82,2.34,2.34,0,0,0-1.79-.74A2.49,2.49,0,0,0,304.07,78Z" transform="translate(-24.44 -18.9)"/><path class="cls-2" d="M321.73,70.48a5.5,5.5,0,0,1,3.42.88,3.64,3.64,0,0,1,1.31,2.89A3,3,0,0,1,324.88,77a3.26,3.26,0,0,1,1.83.88,3.56,3.56,0,0,1,1,2.62,3.76,3.76,0,0,1-1.19,2.84A5.16,5.16,0,0,1,323,84.48h-4.7v-14ZM321,76.29h.77a1.85,1.85,0,0,0,2.12-1.83c0-1.28-1-1.76-2.1-1.76H321Zm0,6h1.17a3.78,3.78,0,0,0,1.87-.37,1.81,1.81,0,0,0,.86-1.62,1.69,1.69,0,0,0-1-1.6,4.48,4.48,0,0,0-1.87-.27h-1Z" transform="translate(-24.44 -18.9)"/><path class="cls-2" d="M338.78,81.94a4.49,4.49,0,0,1-4.47,2.83,4.78,4.78,0,0,1-3.49-1.28,4.6,4.6,0,0,1-1.42-3.55,4.83,4.83,0,0,1,1.38-3.56,4.67,4.67,0,0,1,3.43-1.29,4.33,4.33,0,0,1,3.54,1.5,5.39,5.39,0,0,1,1.09,3.56v.21H332a2.73,2.73,0,0,0,.44,1.54,2.17,2.17,0,0,0,1.83.86,2.33,2.33,0,0,0,2.12-1.2Zm-2.35-3.21a2.18,2.18,0,0,0-4.3,0Z" transform="translate(-24.44 -18.9)"/><path class="cls-2" d="M347.79,75.39h2.56v9.09h-2.56V83.3A3.24,3.24,0,0,1,345,84.77a4.61,4.61,0,0,1-4.64-4.85,4.55,4.55,0,0,1,4.51-4.83,3.3,3.3,0,0,1,2.92,1.47ZM343,79.92a2.52,2.52,0,1,0,2.52-2.56A2.5,2.5,0,0,0,343,79.92Z" transform="translate(-24.44 -18.9)"/><path class="cls-2" d="M359.63,78.16a2.94,2.94,0,0,0-2.09-.8A2.44,2.44,0,0,0,355,79.92a2.54,2.54,0,0,0,2.65,2.59,3,3,0,0,0,2-.8v2.5a5.21,5.21,0,0,1-2.35.56,5.12,5.12,0,0,1-3.5-1.32A4.63,4.63,0,0,1,352.33,80a4.69,4.69,0,0,1,4.85-4.88,5.36,5.36,0,0,1,2.45.55Z" transform="translate(-24.44 -18.9)"/><path class="cls-2" d="M361.57,69.17h2.56v7.39a3.33,3.33,0,0,1,2.81-1.47,3.49,3.49,0,0,1,2.69,1.12,3.81,3.81,0,0,1,.71,2.56v5.71h-2.56v-5a2.6,2.6,0,0,0-.48-1.78,1.63,1.63,0,0,0-1.2-.46,1.74,1.74,0,0,0-1.57.8,3.08,3.08,0,0,0-.4,1.76v4.64h-2.56Z" transform="translate(-24.44 -18.9)"/><path class="cls-2" d="M126.19,108.3h-5.64l-1.24,2.94h-3l6-14h2.14l5.86,14h-2.94Zm-.79-2.23-2-5-2,5Z" transform="translate(-24.44 -18.9)"/><path class="cls-2" d="M134.2,116h-2.57V102.15h2.57v1.17a3.44,3.44,0,0,1,3-1.47,4.34,4.34,0,0,1,3.1,1.22,4.88,4.88,0,0,1,1.37,3.61,4.82,4.82,0,0,1-1.43,3.67,4.41,4.41,0,0,1-3.09,1.18,3.41,3.41,0,0,1-2.91-1.47Zm.6-11.31a2.42,2.42,0,0,0-.86,2,2.59,2.59,0,0,0,.84,2,2.49,2.49,0,0,0,1.68.61,2.44,2.44,0,0,0,1.73-.65,2.67,2.67,0,0,0,.79-1.93,2.74,2.74,0,0,0-.77-1.91,2.71,2.71,0,0,0-1.75-.65A2.34,2.34,0,0,0,134.8,104.73Z" transform="translate(-24.44 -18.9)"/><path class="cls-2" d="M143.6,102.15h2.57v1.36a3,3,0,0,1,1.13-1.26,2.8,2.8,0,0,1,1.51-.4,3.24,3.24,0,0,1,1.09.21l-.33,2.4a1.88,1.88,0,0,0-1.2-.34,2.08,2.08,0,0,0-1.7.73,3.15,3.15,0,0,0-.5,2v4.37H143.6Z" transform="translate(-24.44 -18.9)"/><path class="cls-2" d="M152.44,96.77a1.54,1.54,0,1,1-1.53,1.53A1.55,1.55,0,0,1,152.44,96.77Zm1.29,5.38v9.09h-2.57v-9.09Z" transform="translate(-24.44 -18.9)"/><path class="cls-2" d="M158.72,95.93v15.31h-2.56V95.93Z" transform="translate(-24.44 -18.9)"/><path class="cls-2" d="M169.33,106.55c.25-.29,1.89-2.16,2.39-2.91a4.4,4.4,0,0,0,.82-2.25,2,2,0,0,0-2.08-2.12,2.23,2.23,0,0,0-2.22,2.33h-2.82a4.67,4.67,0,0,1,4.92-4.68c3.25,0,4.93,2.22,4.93,4.45s-1.45,3.71-2.54,4.89l-2.42,2.63h5.06v2.35H165.21Z" transform="translate(-24.44 -18.9)"/><path class="cls-2" d="M177.31,104.22c0-4.8,2.62-7.3,5.42-7.3s5.41,2.5,5.41,7.33-2.62,7.3-5.41,7.3S177.31,109.05,177.31,104.22Zm2.73,0c0,3.66,1.49,5,2.69,5s2.68-1.32,2.68-5-1.51-5-2.68-5S180,100.59,180,104.22Z" transform="translate(-24.44 -18.9)"/><path class="cls-2" d="M189.74,105.23h5.46v2.35h-5.46Z" transform="translate(-24.44 -18.9)"/><path class="cls-2" d="M200.74,106.55c.25-.29,1.89-2.16,2.4-2.91a4.49,4.49,0,0,0,.82-2.25,2,2,0,0,0-2.08-2.12,2.23,2.23,0,0,0-2.23,2.33h-2.81a4.66,4.66,0,0,1,4.91-4.68c3.25,0,4.93,2.22,4.93,4.45s-1.44,3.71-2.54,4.89l-2.41,2.63h5.06v2.35H196.63Z" transform="translate(-24.44 -18.9)"/><path class="cls-2" d="M213,99.58h-2V97.23h4.74v14H213Z" transform="translate(-24.44 -18.9)"/><path class="cls-2" d="M222,108.34l2.35.27-3,5.57-1.62-.19Z" transform="translate(-24.44 -18.9)"/><path class="cls-2" d="M234.91,106.55c.25-.29,1.89-2.16,2.39-2.91a4.4,4.4,0,0,0,.82-2.25A2,2,0,0,0,236,99.27a2.23,2.23,0,0,0-2.22,2.33H231a4.68,4.68,0,0,1,4.92-4.68c3.25,0,4.93,2.22,4.93,4.45s-1.45,3.71-2.54,4.89l-2.41,2.63H241v2.35H230.79Z" transform="translate(-24.44 -18.9)"/><path class="cls-2" d="M242.89,104.22c0-4.8,2.62-7.3,5.42-7.3s5.41,2.5,5.41,7.33-2.62,7.3-5.41,7.3S242.89,109.05,242.89,104.22Zm2.73,0c0,3.66,1.49,5,2.69,5s2.68-1.32,2.68-5-1.51-5-2.68-5S245.62,100.59,245.62,104.22Z" transform="translate(-24.44 -18.9)"/><path class="cls-2" d="M259.06,99.58h-2V97.23h4.75v14h-2.73Z" transform="translate(-24.44 -18.9)"/><path class="cls-2" d="M269.41,110.54l3.34-4.36a5.17,5.17,0,0,1-1.49.27,4.31,4.31,0,0,1-4.39-4.56,4.86,4.86,0,0,1,1.28-3.38,5,5,0,0,1,4-1.59,5.19,5.19,0,0,1,4,1.43,4.56,4.56,0,0,1,1.37,3.4,7.11,7.11,0,0,1-1.77,4.36l-4.11,5.5Zm.95-10.73a2.7,2.7,0,0,0,0,3.78,2.4,2.4,0,0,0,1.8.68,2.33,2.33,0,0,0,1.83-.76,2.63,2.63,0,0,0,0-3.72,2.66,2.66,0,0,0-1.81-.69A2.51,2.51,0,0,0,270.36,99.81Z" transform="translate(-24.44 -18.9)"/></svg>